<svg xmlns="http://www.w3.org/2000/svg" viewBox="0 0 64 64" width="64" height="64">
  <circle cx="32" cy="32" r="30" fill="#1e293b"/>
  <path d="M20,40 L20,24 Q20,20 24,20 L32,20" fill="none" stroke="#f59e0b" stroke-width="2" stroke-linecap="round" stroke-linejoin="round"/>
  <path d="M44,40 L44,24 Q44,20 40,20 L32,20" fill="none" stroke="#f59e0b" stroke-width="2" stroke-linecap="round" stroke-linejoin="round"/>
  <line x1="18" y1="40" x2="46" y2="40" stroke="#f59e0b" stroke-width="2" stroke-linecap="round"/>
  <polygon points="32,14 33.5,17 37,17.5 34.5,20 35,23.5 32,22 29,23.5 29.5,20 27,17.5 30.5,17" fill="#06b6d4"/>
  <line x1="26" y1="28" x2="38" y2="28" stroke="#06b6d4" stroke-width="1" stroke-linecap="round" opacity="0.5"/>
  <line x1="26" y1="32" x2="38" y2="32" stroke="#06b6d4" stroke-width="1" stroke-linecap="round" opacity="0.5"/>
  <line x1="26" y1="36" x2="34" y2="36" stroke="#06b6d4" stroke-width="1" stroke-linecap="round" opacity="0.5"/>
</svg>
