<!-- Anveshi — The Investigator (Debugger) -->
<!-- Symbol: Compass/crosshair + magnifying glass, spiral investigation trail, bug silhouette -->
<!-- Colors: Emerald green (#10b981) + Dark teal (#0d9488) -->
<svg xmlns="http://www.w3.org/2000/svg" viewBox="0 0 200 200" width="200" height="200">

  <!-- Outer sacred circle -->
  <circle cx="100" cy="100" r="92" fill="#10b981" fill-opacity="0.05" stroke="#10b981" stroke-width="2.5"/>

  <!-- Investigation spiral (Archimedean spiral, following the trail) -->
  <path d="M 100,100
           C 100,94 106,88 112,88
           C 120,88 126,96 126,104
           C 126,114 116,122 106,122
           C 92,122 84,110 84,98
           C 84,82 98,72 114,72
           C 132,72 142,88 142,106
           C 142,126 126,140 106,140"
        fill="none" stroke="#0d9488" stroke-width="1.2" stroke-opacity="0.3" stroke-linecap="round"/>

  <!-- Crosshair — cardinal lines with gaps -->
  <g stroke="#10b981" stroke-width="1.5" stroke-opacity="0.5">
    <!-- Vertical -->
    <line x1="100" y1="20" x2="100" y2="75"/>
    <line x1="100" y1="125" x2="100" y2="180"/>
    <!-- Horizontal -->
    <line x1="20" y1="100" x2="75" y2="100"/>
    <line x1="125" y1="100" x2="180" y2="100"/>
  </g>

  <!-- Crosshair tick marks -->
  <g stroke="#10b981" stroke-width="1" stroke-opacity="0.4">
    <line x1="95" y1="40" x2="105" y2="40"/>
    <line x1="95" y1="60" x2="105" y2="60"/>
    <line x1="95" y1="140" x2="105" y2="140"/>
    <line x1="95" y1="160" x2="105" y2="160"/>
    <line x1="40" y1="95" x2="40" y2="105"/>
    <line x1="60" y1="95" x2="60" y2="105"/>
    <line x1="140" y1="95" x2="140" y2="105"/>
    <line x1="160" y1="95" x2="160" y2="105"/>
  </g>

  <!-- Concentric target circles -->
  <circle cx="100" cy="100" r="50" fill="none" stroke="#10b981" stroke-width="1" stroke-opacity="0.25"/>
  <circle cx="100" cy="100" r="35" fill="none" stroke="#0d9488" stroke-width="1" stroke-opacity="0.2"/>
  <circle cx="100" cy="100" r="20" fill="none" stroke="#10b981" stroke-width="1.2" stroke-opacity="0.35"/>

  <!-- Bug silhouette in center (geometric/stylized) -->
  <g transform="translate(100, 100)" fill="#10b981" fill-opacity="0.7" stroke="#10b981" stroke-width="0.8">
    <!-- Bug body: oval -->
    <ellipse cx="0" cy="0" rx="6" ry="9" fill="#10b981" fill-opacity="0.25" stroke="#10b981" stroke-width="1.2"/>
    <!-- Bug head -->
    <circle cx="0" cy="-11" r="3.5" fill="#10b981" fill-opacity="0.3" stroke="#10b981" stroke-width="1"/>
    <!-- Antennae -->
    <line x1="-2" y1="-14" x2="-7" y2="-20" stroke="#10b981" stroke-width="1" stroke-linecap="round"/>
    <line x1="2" y1="-14" x2="7" y2="-20" stroke="#10b981" stroke-width="1" stroke-linecap="round"/>
    <!-- Legs (3 pairs) -->
    <line x1="-5" y1="-5" x2="-12" y2="-8" stroke="#10b981" stroke-width="0.9" stroke-linecap="round"/>
    <line x1="5" y1="-5" x2="12" y2="-8" stroke="#10b981" stroke-width="0.9" stroke-linecap="round"/>
    <line x1="-6" y1="0" x2="-13" y2="0" stroke="#10b981" stroke-width="0.9" stroke-linecap="round"/>
    <line x1="6" y1="0" x2="13" y2="0" stroke="#10b981" stroke-width="0.9" stroke-linecap="round"/>
    <line x1="-5" y1="5" x2="-12" y2="8" stroke="#10b981" stroke-width="0.9" stroke-linecap="round"/>
    <line x1="5" y1="5" x2="12" y2="8" stroke="#10b981" stroke-width="0.9" stroke-linecap="round"/>
  </g>

  <!-- Magnifying glass overlay (upper-right quadrant) -->
  <circle cx="138" cy="58" r="22" fill="none" stroke="#0d9488" stroke-width="1.8" stroke-opacity="0.4"/>
  <line x1="153" y1="73" x2="168" y2="92" stroke="#0d9488" stroke-width="2.5" stroke-linecap="round" stroke-opacity="0.35"/>

  <!-- Investigation dots (clues found) -->
  <circle cx="60" cy="55" r="2" fill="#10b981" fill-opacity="0.5"/>
  <circle cx="148" cy="138" r="2.2" fill="#0d9488" fill-opacity="0.4"/>
  <circle cx="42" cy="130" r="1.8" fill="#10b981" fill-opacity="0.3"/>
</svg>
