<svg xmlns="http://www.w3.org/2000/svg" viewBox="0 0 128 128" width="128" height="128">
  <defs>
    <radialGradient id="tantra-bg" cx="50%" cy="50%" r="50%">
      <stop offset="0%" stop-color="#14b8a6" stop-opacity="0.08"/>
      <stop offset="100%" stop-color="#14b8a6" stop-opacity="0"/>
    </radialGradient>
  </defs>
  <!-- Outer sacred circle -->
  <circle cx="64" cy="64" r="58" fill="url(#tantra-bg)" stroke="#14b8a6" stroke-width="2.5"/>
  <!-- Tantra: Woven grid/loom pattern (the root "tan" means to weave/stretch) -->
  <!-- Warp threads (vertical, slightly curved for loom feel) -->
  <path d="M 32,28 C 32,50 32,78 32,100" fill="none" stroke="#14b8a6" stroke-width="1.5" stroke-opacity="0.7"/>
  <path d="M 44,28 C 44,50 44,78 44,100" fill="none" stroke="#14b8a6" stroke-width="1.5" stroke-opacity="0.7"/>
  <path d="M 56,28 C 56,50 56,78 56,100" fill="none" stroke="#14b8a6" stroke-width="1.5" stroke-opacity="0.7"/>
  <path d="M 64,26 C 64,50 64,78 64,102" fill="none" stroke="#14b8a6" stroke-width="1.8"/>
  <path d="M 72,28 C 72,50 72,78 72,100" fill="none" stroke="#14b8a6" stroke-width="1.5" stroke-opacity="0.7"/>
  <path d="M 84,28 C 84,50 84,78 84,100" fill="none" stroke="#14b8a6" stroke-width="1.5" stroke-opacity="0.7"/>
  <path d="M 96,28 C 96,50 96,78 96,100" fill="none" stroke="#14b8a6" stroke-width="1.5" stroke-opacity="0.7"/>
  <!-- Weft threads (horizontal, undulating to show weave) -->
  <path d="M 26,32 C 34,28 40,36 48,32 C 56,28 60,36 68,32 C 76,28 84,36 92,32 C 98,28 102,32 102,32"
        fill="none" stroke="#14b8a6" stroke-width="1.3" stroke-opacity="0.6"/>
  <path d="M 26,44 C 34,48 40,40 48,44 C 56,48 60,40 68,44 C 76,48 84,40 92,44 C 98,48 102,44 102,44"
        fill="none" stroke="#14b8a6" stroke-width="1.3" stroke-opacity="0.6"/>
  <path d="M 26,56 C 34,52 40,60 48,56 C 56,52 60,60 68,56 C 76,52 84,60 92,56 C 98,52 102,56 102,56"
        fill="none" stroke="#14b8a6" stroke-width="1.5" stroke-opacity="0.8"/>
  <path d="M 26,64 C 34,68 40,60 48,64 C 56,68 60,60 68,64 C 76,68 84,60 92,64 C 98,68 102,64 102,64"
        fill="none" stroke="#14b8a6" stroke-width="1.8"/>
  <path d="M 26,72 C 34,68 40,76 48,72 C 56,68 60,76 68,72 C 76,68 84,76 92,72 C 98,68 102,72 102,72"
        fill="none" stroke="#14b8a6" stroke-width="1.5" stroke-opacity="0.8"/>
  <path d="M 26,84 C 34,88 40,80 48,84 C 56,88 60,80 68,84 C 76,88 84,80 92,84 C 98,88 102,84 102,84"
        fill="none" stroke="#14b8a6" stroke-width="1.3" stroke-opacity="0.6"/>
  <path d="M 26,96 C 34,92 40,100 48,96 C 56,92 60,100 68,96 C 76,92 84,100 92,96 C 98,92 102,96 102,96"
        fill="none" stroke="#14b8a6" stroke-width="1.3" stroke-opacity="0.6"/>
  <!-- Highlighted intersection nodes at center cross -->
  <circle cx="64" cy="64" r="2.5" fill="#14b8a6"/>
  <circle cx="56" cy="56" r="1.5" fill="#14b8a6" fill-opacity="0.5"/>
  <circle cx="72" cy="56" r="1.5" fill="#14b8a6" fill-opacity="0.5"/>
  <circle cx="56" cy="72" r="1.5" fill="#14b8a6" fill-opacity="0.5"/>
  <circle cx="72" cy="72" r="1.5" fill="#14b8a6" fill-opacity="0.5"/>
</svg>
