<svg xmlns="http://www.w3.org/2000/svg" viewBox="0 0 128 128" width="128" height="128">
  <defs>
    <radialGradient id="vidhya-bg" cx="50%" cy="50%" r="50%">
      <stop offset="0%" stop-color="#a78bfa" stop-opacity="0.08"/>
      <stop offset="100%" stop-color="#a78bfa" stop-opacity="0"/>
    </radialGradient>
  </defs>
  <!-- Outer sacred circle -->
  <circle cx="64" cy="64" r="58" fill="url(#vidhya-bg)" stroke="#a78bfa" stroke-width="2.5"/>
  <!-- Tree of Knowledge (Kalpa Vriksha — the wish-fulfilling tree) -->
  <!-- Trunk -->
  <line x1="64" y1="104" x2="64" y2="58" stroke="#a78bfa" stroke-width="3" stroke-linecap="round"/>
  <!-- Roots (3 descending arcs) -->
  <path d="M 64,104 C 58,108 48,106 44,100" fill="none" stroke="#a78bfa" stroke-width="1.5" stroke-linecap="round" stroke-opacity="0.6"/>
  <path d="M 64,104 C 70,108 80,106 84,100" fill="none" stroke="#a78bfa" stroke-width="1.5" stroke-linecap="round" stroke-opacity="0.6"/>
  <path d="M 64,104 C 64,110 64,110 64,108" fill="none" stroke="#a78bfa" stroke-width="1.5" stroke-linecap="round" stroke-opacity="0.5"/>
  <!-- Main branches -->
  <!-- Left major branch -->
  <path d="M 64,72 C 54,66 38,62 28,52" fill="none" stroke="#a78bfa" stroke-width="2" stroke-linecap="round"/>
  <!-- Right major branch -->
  <path d="M 64,72 C 74,66 90,62 100,52" fill="none" stroke="#a78bfa" stroke-width="2" stroke-linecap="round"/>
  <!-- Left upper branch -->
  <path d="M 64,62 C 52,54 40,48 32,38" fill="none" stroke="#a78bfa" stroke-width="1.8" stroke-linecap="round"/>
  <!-- Right upper branch -->
  <path d="M 64,62 C 76,54 88,48 96,38" fill="none" stroke="#a78bfa" stroke-width="1.8" stroke-linecap="round"/>
  <!-- Crown/canopy top -->
  <path d="M 64,58 C 56,48 48,38 44,28" fill="none" stroke="#a78bfa" stroke-width="1.5" stroke-linecap="round"/>
  <path d="M 64,58 C 72,48 80,38 84,28" fill="none" stroke="#a78bfa" stroke-width="1.5" stroke-linecap="round"/>
  <!-- Central ascending branch -->
  <path d="M 64,58 L 64,26" fill="none" stroke="#a78bfa" stroke-width="2" stroke-linecap="round"/>
  <!-- Sub-branches -->
  <path d="M 38,62 C 34,56 30,56 26,58" fill="none" stroke="#a78bfa" stroke-width="1" stroke-linecap="round" stroke-opacity="0.5"/>
  <path d="M 90,62 C 94,56 98,56 102,58" fill="none" stroke="#a78bfa" stroke-width="1" stroke-linecap="round" stroke-opacity="0.5"/>
  <!-- Knowledge fruits (leaf nodes) -->
  <circle cx="28" cy="52" r="3" fill="#a78bfa" fill-opacity="0.3" stroke="#a78bfa" stroke-width="1.2"/>
  <circle cx="100" cy="52" r="3" fill="#a78bfa" fill-opacity="0.3" stroke="#a78bfa" stroke-width="1.2"/>
  <circle cx="32" cy="38" r="3" fill="#a78bfa" fill-opacity="0.3" stroke="#a78bfa" stroke-width="1.2"/>
  <circle cx="96" cy="38" r="3" fill="#a78bfa" fill-opacity="0.3" stroke="#a78bfa" stroke-width="1.2"/>
  <circle cx="44" cy="28" r="3" fill="#a78bfa" fill-opacity="0.3" stroke="#a78bfa" stroke-width="1.2"/>
  <circle cx="84" cy="28" r="3" fill="#a78bfa" fill-opacity="0.3" stroke="#a78bfa" stroke-width="1.2"/>
  <circle cx="64" cy="24" r="3.5" fill="#a78bfa" fill-opacity="0.4" stroke="#a78bfa" stroke-width="1.5"/>
  <!-- Root bindu -->
  <circle cx="64" cy="104" r="2" fill="#a78bfa"/>
</svg>
