<svg xmlns="http://www.w3.org/2000/svg" viewBox="0 0 64 64" width="64" height="64">
  <circle cx="32" cy="32" r="30" fill="#1e293b"/>
  <path d="M32,18 A8,8 0 0,1 40,26 A8,8 0 0,1 32,34 A6,6 0 0,0 26,40 A6,6 0 0,0 32,46" fill="none" stroke="#f59e0b" stroke-width="2" stroke-linecap="round"/>
  <path d="M32,18 A8,8 0 0,0 24,26 A8,8 0 0,0 32,34 A6,6 0 0,1 38,40 A6,6 0 0,1 32,46" fill="none" stroke="#06b6d4" stroke-width="2" stroke-linecap="round"/>
  <circle cx="32" cy="32" r="2" fill="#f59e0b"/>
</svg>
